<?xml version="1.0" encoding="UTF-8" standalone="no"?>
<svg width="226px" height="50px" viewBox="0 0 226 50" version="1.1" xmlns="http://www.w3.org/2000/svg" xmlns:xlink="http://www.w3.org/1999/xlink">
    <!-- Generator: Sketch 40 (33762) - http://www.bohemiancoding.com/sketch -->
    <title>Page 1</title>
    <desc>Created with Sketch.</desc>
    <defs>
        <polygon id="path-1" points="49.2018835 0.283673469 0.000204063205 0.283673469 0.000204063205 49.4896939 49.2018835 49.4896939 49.2018835 0.283673469"></polygon>
        <polygon id="path-3" points="10.6597517 12.9994388 10.6597517 0.0116836735 0.497710158 0.0116836735 0.497710158 12.9994388 10.6597517 12.9994388"></polygon>
    </defs>
    <g id="Design-3rd-version" stroke="none" stroke-width="1" fill="none" fill-rule="evenodd">
        <g id="Project-Overview" transform="translate(-36.000000, -19.000000)">
            <g id="Page-1" transform="translate(36.000000, 19.000000)">
                <polygon id="Fill-1" fill="#3B94D0" points="60.4596424 12.1562755 56.8528253 12.1562755 56.871191 10.1108673 66.4096153 10.1108673 66.3907395 12.1562755 62.8395296 12.1562755 62.7466808 22.9782143 60.3667937 22.9782143"></polygon>
                <g id="Group-60" transform="translate(0.000000, 0.226633)">
                    <path d="M72.2221007,15.6671939 C72.9164257,15.6671939 73.4429088,15.4784184 73.8025702,15.0998469 C74.1617214,14.7217857 74.3418072,14.2478061 74.3418072,13.677398 C74.3418072,13.0825 74.1397847,12.6238265 73.73727,12.3013776 C73.3347553,11.9794388 72.810823,11.8182143 72.1664935,11.8182143 L70.7905973,11.8182143 L70.7533558,15.6671939 L72.2221007,15.6671939 Z M68.3918343,9.88403061 L72.4639156,9.88403061 C73.9392926,9.88403061 75.0356221,10.2284184 75.7549449,10.9161735 C76.4732474,11.6044388 76.833419,12.4998469 76.833419,13.6029082 C76.833419,14.4090306 76.6130307,15.0967857 76.1732745,15.6671939 C75.7330081,16.237602 75.1228591,16.6651531 74.3418072,16.9503571 L78.0047418,21.7294388 L75.8850352,22.9886224 L72.3154596,18.0452551 C72.1042542,17.7493367 71.819586,17.6008673 71.4599246,17.6008673 L70.7161142,17.6008673 L70.6972384,22.7513776 L68.261744,22.7513776 L68.3918343,9.88403061 Z" id="Fill-2" fill="#3B94D0"></path>
                    <path d="M85.0290054,12.3634184 L83.3704817,17.3965816 L86.5201973,17.3965816 L85.0290054,12.3634184 Z M81.2390415,22.9884184 L79.0264862,22.3425 L83.9729783,9.88433673 L86.1666578,9.88433673 L90.7591002,22.3205612 L88.4348203,22.9884184 L87.1706488,19.3302551 L82.6894208,19.3302551 L81.2390415,22.9884184 Z" id="Fill-4" fill="#3B94D0"></path>
                    <polygon id="Fill-6" fill="#3B94D0" points="92.6673973 10.2888776 94.8799526 9.61897959 100.885533 19.4791837 100.773808 9.82816327 103.153695 9.82816327 103.041971 22.3240816 100.632494 22.9960204 94.7835327 13.2143878 94.7498623 13.2664286 94.93607 22.7516327 92.5561828 22.7516327"></polygon>
                    <path d="M107.12048,20.2040816 C107.480141,20.4469388 107.861229,20.65 108.263744,20.8137755 C108.666769,20.9780612 109.041735,21.0596939 109.388642,21.0596939 C110.033482,21.0596939 110.538539,20.8831633 110.904322,20.5306122 C111.270105,20.177551 111.453252,19.7352041 111.453252,19.2030612 C111.453252,18.5346939 110.829839,17.897449 109.584033,17.2908163 C108.338737,16.6846939 107.458205,16.1897959 106.943965,15.8061224 C106.429726,15.422449 106.172096,14.6056122 106.172096,13.355102 C106.172096,12.2785714 106.568999,11.3877551 107.362805,10.6821429 C108.15508,9.97653061 109.190701,9.62397959 110.467116,9.62397959 C111.074715,9.62397959 111.681803,9.71683673 112.289401,9.90306122 C112.897509,10.0887755 113.497965,10.3556122 114.092809,10.702551 L113.088819,12.4877551 C112.494484,12.1372449 112.047586,11.894898 111.750674,11.7596939 C111.453252,11.625 111.086958,11.5576531 110.653324,11.5576531 C110.070724,11.5576531 109.57485,11.7091837 109.165703,12.0127551 C108.757067,12.3163265 108.551983,12.7397959 108.551983,13.2841837 C108.551983,13.952551 109.205496,14.6209184 110.514051,15.2892857 C111.821586,15.9576531 112.719974,16.4714286 113.209726,16.830102 C113.698967,17.1892857 113.944353,17.9505102 113.944353,19.1132653 C113.944353,20.227551 113.543369,21.152551 112.741911,21.8887755 C111.940453,22.625 110.918096,22.9933673 109.676372,22.9933673 C108.458624,22.9933673 107.290873,22.6647959 106.172096,22.0081633 L107.12048,20.2040816 Z" id="Fill-8" fill="#3B94D0"></path>
                    <path d="M120.812101,15.7786224 C121.468674,15.7786224 122.010972,15.5959694 122.438484,15.2301531 C122.866507,14.8648469 123.080773,14.3842347 123.080773,13.7893367 C123.080773,13.2934184 122.912931,12.8408673 122.578268,12.4316837 C122.243094,12.0225 121.686001,11.8179082 120.904949,11.8179082 L119.640268,11.8179082 L119.604047,15.7786224 L120.812101,15.7786224 Z M117.242015,9.88423469 L120.867708,9.88423469 C122.491031,9.88423469 123.681229,10.225051 124.437284,10.9066837 C125.193338,11.5888265 125.571875,12.5556633 125.571875,13.8077041 C125.571875,15.0597449 125.125487,16.0235204 124.23271,16.6990306 C123.340444,17.375051 122.224728,17.7122959 120.886074,17.7122959 L119.565785,17.7122959 L119.547929,22.7515816 L117.112435,22.7515816 L117.242015,9.88423469 Z" id="Fill-10" fill="#3B94D0"></path>
                    <path d="M131.553223,12.3634184 L129.895209,17.3965816 L133.044414,17.3965816 L131.553223,12.3634184 Z M127.763769,22.9884184 L125.551214,22.3425 L130.497195,9.88433673 L132.690875,9.88433673 L137.283828,22.3205612 L134.959037,22.9884184 L133.694866,19.3302551 L129.214148,19.3302551 L127.763769,22.9884184 Z" id="Fill-12" fill="#3B94D0"></path>
                    <path d="M143.040247,15.6671939 C143.734061,15.6671939 144.261055,15.4784184 144.620716,15.0998469 C144.979867,14.7217857 145.160463,14.2478061 145.160463,13.677398 C145.160463,13.0825 144.958441,12.6238265 144.556436,12.3013776 C144.152391,11.9794388 143.628969,11.8182143 142.984129,11.8182143 L141.608743,11.8182143 L141.571502,15.6671939 L143.040247,15.6671939 Z M139.21049,9.88403061 L143.282061,9.88403061 C144.757438,9.88403061 145.854278,10.2284184 146.573091,10.9161735 C147.291393,11.6044388 147.651565,12.4998469 147.651565,13.6029082 C147.651565,14.4090306 147.431687,15.0967857 146.99142,15.6671939 C146.551154,16.237602 145.941005,16.6651531 145.160463,16.9503571 L148.822888,21.7294388 L146.703691,22.9886224 L143.133605,18.0452551 C142.9224,17.7493367 142.637222,17.6008673 142.278581,17.6008673 L141.53426,17.6008673 L141.515894,22.7513776 L139.07989,22.7513776 L139.21049,9.88403061 Z" id="Fill-14" fill="#3B94D0"></path>
                    <polygon id="Fill-16" fill="#3B94D0" points="151.488667 9.88418367 158.368148 9.88418367 158.368148 11.9295918 153.868554 11.9295918 153.793561 15.2392857 158.293665 15.2392857 158.293665 17.1734694 153.812437 17.1734694 153.793561 20.7061224 158.368148 20.7061224 158.368148 22.7515306 151.358067 22.7515306"></polygon>
                    <polygon id="Fill-18" fill="#3B94D0" points="161.684022 10.2888776 163.896577 9.61897959 169.902668 19.4791837 169.790433 9.82816327 172.17032 9.82816327 172.059106 22.3240816 169.648609 22.9960204 163.800668 13.2143878 163.766997 13.2664286 163.952695 22.7516327 161.572808 22.7516327"></polygon>
                    <path d="M185.301889,21.747449 C184.718779,22.1566327 184.074959,22.4663265 183.368391,22.677551 C182.661822,22.8877551 181.943009,22.9933673 181.211953,22.9933673 C179.290187,22.9933673 177.697474,22.3683673 176.432792,21.1178571 C175.168621,19.8678571 174.536535,18.2770408 174.536535,16.3459184 C174.536535,14.3653061 175.149745,12.75 176.377695,11.4994898 C177.604115,10.2489796 179.185095,9.62397959 181.118594,9.62397959 C182.742427,9.62397959 184.14281,10.119898 185.320765,11.1117347 L184.279533,12.8964286 C183.895384,12.5362245 183.417366,12.2418367 182.847519,12.0127551 C182.277163,11.7836735 181.725682,11.6693878 181.193077,11.6693878 C179.953393,11.6693878 178.948892,12.102551 178.181104,12.9683673 C177.411786,13.8341837 177.028147,14.9229592 177.028147,16.2346939 C177.028147,17.4964286 177.415867,18.597449 178.190287,19.5377551 C178.965217,20.4780612 179.940639,20.9479592 181.118594,20.9479592 C181.862404,20.9479592 182.459799,20.8816327 182.912819,20.7479592 C183.364819,20.6147959 183.845388,20.4086735 184.354016,20.1295918 L185.301889,21.747449 Z" id="Fill-20" fill="#3B94D0"></path>
                    <polygon id="Fill-22" fill="#3B94D0" points="191.321397 17.4130102 187.063108 10.8466837 189.238422 9.61913265 192.603424 15.0533163 196.099537 9.61913265 198.200367 10.8283163 193.812498 17.3385204 193.737505 22.7517857 191.246914 22.7517857"></polygon>
                    <polygon id="Fill-24" fill="#3B94D0" points="60.0878393 26.0654082 62.4677264 26.0654082 62.3560018 38.9327551 59.9766248 38.9327551"></polygon>
                    <polygon id="Fill-26" fill="#3B94D0" points="64.8965887 26.470102 67.109144 25.8007143 73.1147242 35.6604082 73.0029995 26.009898 75.3828867 26.009898 75.2716722 38.5058163 72.8616858 39.1767347 67.0132343 29.3956122 66.9790537 29.4476531 67.1652614 38.9328571 64.7853743 38.9328571"></polygon>
                    <polygon id="Fill-28" fill="#3B94D0" points="80.7935716 28.1110714 77.1862442 28.1110714 77.2046099 26.0656633 86.7430343 26.0656633 86.7246686 28.1110714 83.1729485 28.1110714 83.0800998 38.9330102 80.7007228 38.9330102"></polygon>
                    <polygon id="Fill-30" fill="#3B94D0" points="88.6767883 26.0654082 95.5562691 26.0654082 95.5562691 28.1108163 91.0566754 28.1108163 90.9821923 31.4210204 95.481786 31.4210204 95.481786 33.3546939 91.0010682 33.3546939 90.9821923 36.8873469 95.5562691 36.8873469 95.5562691 38.9327551 88.5461878 38.9327551"></polygon>
                    <path d="M102.237911,31.8484184 C102.931726,31.8484184 103.458719,31.6596429 103.81787,31.2815816 C104.177531,30.9030102 104.357617,30.4290306 104.357617,29.8586224 C104.357617,29.2637245 104.155595,28.8055612 103.75308,28.482602 C103.350055,28.1606633 102.826633,27.9994388 102.182303,27.9994388 L100.806407,27.9994388 L100.769166,31.8484184 L102.237911,31.8484184 Z M98.4076442,26.0652551 L102.479726,26.0652551 C103.954592,26.0652551 105.051432,26.4096429 105.770245,27.097398 C106.489057,27.7856633 106.848719,28.6810714 106.848719,29.7846429 C106.848719,30.5902551 106.628841,31.2780102 106.189084,31.8484184 C105.748818,32.4188265 105.138669,32.8463776 104.357617,33.1310714 L108.020552,37.9106633 L105.900845,39.1703571 L102.33127,34.2264796 C102.120064,33.9305612 101.834886,33.7820918 101.475735,33.7820918 L100.731924,33.7820918 L100.713048,38.932602 L98.277554,38.932602 L98.4076442,26.0652551 Z" id="Fill-32" fill="#3B94D0"></path>
                    <polygon id="Fill-34" fill="#3B94D0" points="110.183928 26.470102 112.396483 25.8007143 118.402063 35.6604082 118.289828 26.009898 120.670226 26.009898 120.559011 38.5058163 118.149025 39.1767347 112.300063 29.3956122 112.266393 29.4476531 112.45209 38.9328571 110.072203 38.9328571"></polygon>
                    <path d="M128.418914,28.5446429 L126.7609,33.5778061 L129.910616,33.5778061 L128.418914,28.5446429 Z M124.62997,39.1701531 L122.417415,38.5237245 L127.363397,26.0655612 L129.557586,26.0655612 L134.150029,38.5017857 L131.825239,39.1701531 L130.561067,35.5114796 L126.080349,35.5114796 L124.62997,39.1701531 Z" id="Fill-36" fill="#3B94D0"></path>
                    <polygon id="Fill-38" fill="#3B94D0" points="137.613033 28.1110714 134.005705 28.1110714 134.025091 26.0656633 143.563005 26.0656633 143.54413 28.1110714 139.99292 28.1110714 139.899561 38.9330102 137.520694 38.9330102"></polygon>
                    <polygon id="Fill-40" fill="#3B94D0" points="145.403962 26.0654082 147.783849 26.0654082 147.671614 38.9327551 145.291727 38.9327551"></polygon>
                    <path d="M156.856601,37.2409694 C158.159034,37.2409694 159.218633,36.7802551 160.036416,35.8583163 C160.854199,34.9368878 161.263346,33.8139286 161.263346,32.489949 C161.263346,31.1169898 160.85777,29.9817857 160.045599,29.0843367 C159.233937,28.187398 158.170768,27.7394388 156.856601,27.7394388 C155.703644,27.7394388 154.682307,28.172602 153.789021,29.0384184 C152.896244,29.9037245 152.450876,31.0547449 152.450876,32.489949 C152.450876,33.9006633 152.852881,35.045051 153.65893,35.9231122 C154.46498,36.8021939 155.5307,37.2409694 156.856601,37.2409694 M156.856601,25.8052551 C158.902335,25.8052551 160.563409,26.4430102 161.840335,27.7180102 C163.11624,28.9935204 163.754958,30.5838265 163.754958,32.489949 C163.754958,34.3838265 163.094813,35.9710714 161.775034,37.2527041 C160.454745,38.5338265 158.814587,39.1746429 156.856601,39.1746429 C154.88586,39.1746429 153.243152,38.5465816 151.930005,37.289949 C150.615838,36.0338265 149.959265,34.4338265 149.959265,32.489949 C149.959265,30.620051 150.625021,29.0389286 151.958064,27.7455612 C153.290086,26.4521939 154.923102,25.8052551 156.856601,25.8052551" id="Fill-42" fill="#3B94D0"></path>
                    <polygon id="Fill-44" fill="#3B94D0" points="166.116071 26.470102 168.328626 25.8007143 174.333696 35.6604082 174.222482 26.009898 176.602369 26.009898 176.491154 38.5058163 174.081168 39.1767347 168.232206 29.3956122 168.198026 29.4476531 168.383723 38.9328571 166.003836 38.9328571"></polygon>
                    <path d="M183.916504,28.5446429 L182.258491,33.5778061 L185.408206,33.5778061 L183.916504,28.5446429 Z M180.127561,39.1701531 L177.915005,38.5237245 L182.860987,26.0655612 L185.055177,26.0655612 L189.647619,38.5017857 L187.322829,39.1701531 L186.058658,35.5114796 L181.57845,35.5114796 L180.127561,39.1701531 Z" id="Fill-46" fill="#3B94D0"></path>
                    <polygon id="Fill-48" fill="#3B94D0" points="191.202581 26.0654082 193.582468 26.0654082 193.471254 36.8873469 198.510084 36.8873469 198.510084 38.9327551 191.090346 38.9327551"></polygon>
                    <path d="M26.9023666,14.2841837 C26.9023666,12.0515306 25.0928361,10.2418367 22.8603847,10.2418367 C20.627423,10.2418367 18.8184027,12.0515306 18.8184027,14.2841837 C18.8184027,16.5173469 20.627423,18.327551 22.8603847,18.327551 C25.0928361,18.327551 26.9023666,16.5173469 26.9023666,14.2841837" id="Fill-50" fill="#3B94D0"></path>
                    <g id="Group-54">
                        <mask id="mask-2" fill="white">
                            <use xlink:href="#path-1"></use>
                        </mask>
                        <g id="Clip-53"></g>
                        <path d="M28.7312831,45.7320408 C26.6110664,44.1621429 25.5708542,38.0733673 25.5708542,33.702449 C25.5708542,33.0381633 25.6070754,32.3810204 25.6682944,31.7330612 L25.6259512,31.7330612 C22.5002131,31.7330612 19.497423,31.4208163 16.691554,30.8544898 C16.3859693,35.3759184 17.9740912,41.5733673 19.3790664,45.3228571 C19.0989896,45.2504082 18.8138113,45.1866327 18.5388361,45.1029592 C16.5446284,40.8177551 15.3039242,35.4468367 15.12894,29.5835714 C18.1301995,30.3881633 21.5099964,30.7886735 25.0760009,30.6718367 C36.6922989,30.2881633 46.0021725,24.5769388 46.430195,17.7529592 C46.9663711,19.6662245 47.2581815,21.6810204 47.2581815,23.7657143 C47.2581815,26.3269388 46.8209761,28.7845918 46.0261499,31.0759184 C43.3967955,38.6463265 36.8050438,44.3606122 28.7312831,45.7320408 M7.76072777,15.7937755 C6.75367585,14.8483673 6.02925147,13.807551 5.63745011,12.7039796 C8.12957201,8.36010204 12.0363621,4.93255102 16.7359377,3.06010204 C12.7669084,6.22336735 9.63198736,10.6386735 7.76072777,15.7937755 M2.6923079,23.7657143 C2.6923079,22.4345918 2.82137788,21.1361224 3.04431693,19.8692857 C3.43560813,21.6447959 4.42684515,23.2917347 5.9037526,24.7371429 C5.86089932,25.4284694 5.83233047,26.1259184 5.83233047,26.8305102 C5.83233047,30.7636735 6.52512506,34.5116327 7.77399187,37.9330612 C4.5987684,34.0810204 2.6923079,29.1463265 2.6923079,23.7657143 M37.5116126,3.94683673 C37.4626375,3.91673469 37.5167142,3.95704082 37.4677391,3.92744898 L36.8433056,4.90908163 C36.8626916,4.92183673 36.883098,4.93306122 36.9014637,4.94530612 C38.474791,5.94377551 39.9144569,7.13510204 41.1873011,8.48510204 C41.8673418,9.20653061 42.4978971,9.97489796 43.078967,10.782551 C43.078967,10.7973469 43.0810077,10.8121429 43.0810077,10.827449 C43.0810077,16.3907143 34.6236081,20.9009184 24.1898564,20.9009184 C21.1942086,20.9009184 18.3623214,20.5279592 15.8462221,19.8657143 C17.5868813,10.5376531 22.1772831,3.44122449 27.8349354,1.66877551 C29.7388451,1.91316327 31.5652108,2.40142857 33.2869941,3.09428571 C33.2869941,3.09428571 33.8496984,2.13 33.793581,2.07132653 C33.7379738,2.01214286 32.3192244,1.51163265 31.5570483,1.28765306 C29.3506149,0.637653061 27.0181725,0.283571429 24.6010438,0.283571429 C23.1414817,0.283571429 21.7130393,0.418265306 20.3228587,0.661632653 C8.77645237,2.68816327 0.000204063205,12.7585714 0.000204063205,24.8861224 C0.000204063205,34.0320408 4.99414086,42.0065306 12.3990844,46.2478571 C14.9820144,47.7259184 17.8557345,48.7544898 20.9177029,49.2146939 C22.1186149,49.3947959 23.349116,49.4896939 24.6010438,49.4896939 C32.9972244,49.4896939 40.4067594,45.2805102 44.8466646,38.8590816 C47.5908045,34.8912245 49.2018835,30.0779592 49.2018835,24.8861224 C49.2018835,16.035102 44.5247549,8.28102041 37.5116126,3.94683673" id="Fill-52" fill="#3B94D0" mask="url(#mask-2)"></path>
                    </g>
                    <polygon id="Fill-55" fill="#3B94D0" points="206.003744 26.0654082 212.883735 26.0654082 212.883735 28.1108163 208.383632 28.1108163 208.308638 31.4205102 212.808742 31.4205102 212.808742 33.3546939 208.327514 33.3546939 208.308638 36.8873469 212.883735 36.8873469 212.883735 38.9327551 205.873144 38.9327551"></polygon>
                    <g id="Group-59" transform="translate(215.286682, 26.020408)">
                        <mask id="mask-4" fill="white">
                            <use xlink:href="#path-3"></use>
                        </mask>
                        <g id="Clip-58"></g>
                        <path d="M0.497710158,0.0116836735 L2.92453183,0.0116836735 L2.92453183,7.85403061 C2.92453183,8.24382653 2.98830158,8.60556122 3.11584108,8.9397449 C3.24338059,9.27443878 3.42295621,9.56627551 3.65405779,9.8152551 C3.88515937,10.0647449 4.16217517,10.2627041 4.48459503,10.4086224 C4.80650474,10.5545408 5.16871693,10.6275 5.56970113,10.6275 C5.97119549,10.6275 6.33289752,10.5545408 6.65531738,10.4086224 C6.97722709,10.2627041 7.25730384,10.0683163 7.49452731,9.82443878 C7.73175079,9.58158163 7.9138772,9.29280612 8.04192686,8.95811224 C8.16997652,8.62341837 8.23323612,8.26168367 8.23323612,7.87239796 L8.23323612,0.391785714 C8.23323612,0.294336735 8.23272596,0.0116836735 8.23272596,0.0116836735 L10.6600578,0.0116836735 L10.6600578,7.98209184 C10.6600578,8.67494898 10.5294573,9.32596939 10.2677463,9.93413265 C10.0060352,10.5428061 9.64739413,11.0744388 9.19131287,11.5305612 C8.7352316,11.9866837 8.1970149,12.3458673 7.57666275,12.6070918 C6.95631061,12.8683163 6.2869833,12.9994388 5.56970113,12.9994388 C4.8519088,12.9994388 4.1861526,12.8683163 3.57192235,12.6070918 C2.9576921,12.3458673 2.42253634,11.9866837 1.96696524,11.5305612 C1.51088397,11.0744388 1.15173273,10.5428061 0.89002167,9.93413265 C0.628310609,9.32596939 0.498220316,8.67494898 0.498220316,7.98209184" id="Fill-57" fill="#3B94D0" mask="url(#mask-4)"></path>
                    </g>
                </g>
            </g>
        </g>
    </g>
</svg>