<?xml version="1.0" standalone="no"?>
<!DOCTYPE svg PUBLIC "-//W3C//DTD SVG 20010904//EN"
 "http://www.w3.org/TR/2001/REC-SVG-20010904/DTD/svg10.dtd">
<svg version="1.0" xmlns="http://www.w3.org/2000/svg"
 width="2500.000000pt" height="2500.000000pt" viewBox="0 0 2500.000000 2500.000000"
 preserveAspectRatio="xMidYMid meet">
<metadata>
Created by potrace 1.11, written by Peter Selinger 2001-2013
</metadata>
<g transform="translate(0.000000,2500.000000) scale(0.100000,-0.100000)"
fill="#000000" stroke="none">
<path d="M10210 24960 c-809 -159 -1568 -389 -2315 -700 -2090 -871 -3915
-2324 -5265 -4195 -1362 -1888 -2176 -4099 -2374 -6455 -33 -388 -41 -588 -41
-1085 0 -594 17 -911 76 -1445 283 -2577 1330 -4992 3013 -6950 471 -547 1054
-1112 1621 -1569 1372 -1106 2928 -1888 4619 -2321 317 -82 619 -145 999 -210
l178 -30 1779 0 1779 0 178 30 c390 67 700 132 1022 215 1684 435 3229 1214
4596 2316 648 522 1269 1138 1806 1789 1410 1712 2362 3806 2728 6005 126 754
176 1371 176 2170 0 594 -17 910 -76 1445 -290 2643 -1388 5121 -3145 7100
-70 80 -169 187 -219 238 -50 50 -89 92 -87 92 3 0 -1 7 -8 15 -7 8 -17 12
-23 8 -5 -3 -7 -1 -4 4 8 13 -97 105 -108 95 -5 -4 -5 -2 -2 4 4 6 -12 26 -33
43 -23 18 -37 37 -34 43 4 7 2 8 -4 4 -7 -4 -12 -2 -12 5 0 7 -3 10 -6 6 -8
-7 -60 54 -56 66 1 5 -2 6 -6 3 -5 -3 -32 19 -60 48 -27 30 -53 52 -58 48 -4
-4 -4 -2 -1 4 14 24 -440 431 -813 730 -947 758 -2023 1382 -3140 1821 -692
272 -1414 482 -2124 617 l-188 36 -2087 -1 -2086 -1 -195 -38z m4643 -3644 c2
-6 3 -2376 3 -5266 l-1 -5255 -2451 -1 -2450 0 1 5265 c1 2897 3 5266 4 5267
0 0 1101 0 2446 0 1719 0 2445 -3 2448 -10z m-127 -14356 l0 -2296 -2296 0
-2296 0 0 2296 0 2296 2296 0 2296 0 0 -2296z"/>
</g>
</svg>
